# xmcd CD database file
#
# Track frame offsets:
#	150
#	19568
#	42858
#	64937
#	83207
#	124449
#	152699
#	188456
#	206127
#
# Disc length: 3026 seconds
#
# Revision: 0
# Processed by: cddbd v1.5.2PL0 Copyright (c) Steve Scherf et al.
# Submitted via: CDex 1.70beta2
#
DISCID=730bd009
DTITLE=MANOUCHE SWING - DJANGO IN MONTREAL
DYEAR=2008
DGENRE=Jazz
TTITLE0=IT HAD TO BE YOU
TTITLE1=CARAVAN
TTITLE2=MADE FOR WESLEY
TTITLE3=AVALON
TTITLE4=ANOUMAN
TTITLE5=NIGHT IN TUNISIA
TTITLE6=LES FLOTS DU DANUBE
TTITLE7=KETELOS
TTITLE8=BASAME MUCHO
EXTD=YEAR: 2008
EXTT0=
EXTT1=
EXTT2=
EXTT3=
EXTT4=
EXTT5=
EXTT6=
EXTT7=
EXTT8=
PLAYORDER=
